<svg width="19" height="20" viewBox="0 0 19 20" fill="none" xmlns="http://www.w3.org/2000/svg">
<path fill-rule="evenodd" clip-rule="evenodd" d="M9.17926 9.10651C8.85973 8.91904 8.75347 8.50767 8.94132 8.18851C9.12879 7.86898 9.54016 7.76272 9.8597 7.95019C10.0995 8.09136 10.3253 8.26479 10.531 8.47048C11.8399 9.77935 11.8399 11.9053 10.531 13.2142L7.11557 16.6296C5.80669 17.9385 3.68076 17.9385 2.37188 16.6296C1.06301 15.3207 1.06301 13.1948 2.37188 11.8859L4.42837 9.82945C4.69022 9.56759 5.11525 9.5676 5.3771 9.82945C5.63895 10.0913 5.63895 10.5163 5.3771 10.7782L3.32062 12.8347C2.53507 13.6202 2.53507 14.8953 3.32062 15.6809C4.10618 16.4664 5.38128 16.4664 6.16683 15.6809L9.58229 12.2654C10.3678 11.4799 10.3678 10.2048 9.58229 9.41921C9.45857 9.2955 9.32309 9.19114 9.17926 9.10651Z" fill="#8A92B2"/>
<path fill-rule="evenodd" clip-rule="evenodd" d="M8.82269 10.8935C9.14222 11.081 9.24848 11.4923 9.06063 11.8115C8.87316 12.131 8.46179 12.2373 8.14225 12.0498C7.90241 11.9086 7.67662 11.7352 7.47093 11.5295C6.16205 10.2206 6.16205 8.09472 7.47093 6.78584L10.8864 3.37039C12.1953 2.06151 14.3212 2.06151 15.6301 3.37039C16.9389 4.67926 16.9389 6.80519 15.6301 8.11407L13.5736 10.1706C13.3117 10.4324 12.8867 10.4324 12.6249 10.1706C12.363 9.9087 12.363 9.48367 12.6249 9.22182L14.6813 7.16534C15.4669 6.37978 15.4669 5.10468 14.6813 4.31912C13.8958 3.53357 12.6207 3.53357 11.8351 4.31912L8.41967 7.73458C7.63411 8.52013 7.63411 9.79523 8.41967 10.5808C8.54338 10.7045 8.67886 10.8089 8.82269 10.8935Z" fill="#8A92B2"/>
</svg>
