<svg width="14" height="14" viewBox="0 0 14 14" fill="none" xmlns="http://www.w3.org/2000/svg">
<g clip-path="url(#clip0_1166_151531)">
<path d="M6.0744 6.45738C5.8946 6.7597 3.08987 6.8105 1.55975 5.95298C0.0296313 5.09546 0.773022 2.47352 2.32502 1.78503C3.87701 1.09654 6.2542 6.1551 6.0744 6.45738Z" fill="#8A92B2"/>
<path d="M6.0531 7.50757C6.2329 7.80989 4.8759 10.193 3.34576 11.0505C1.81564 11.908 -0.151895 9.97217 0.00984866 8.32329C0.171592 6.67437 5.8733 7.20525 6.0531 7.50757Z" fill="#8A92B2"/>
<path d="M6.97881 8.04883C7.33845 8.04883 8.78609 10.3812 8.78609 12.0962C8.78609 13.8112 6.07517 14.4973 4.68493 13.5369C3.29467 12.5765 6.61921 8.04879 6.97881 8.04883Z" fill="#8A92B2"/>
<path d="M7.92565 7.54186C8.10545 7.2395 10.9102 7.18874 12.4403 8.04626C13.9704 8.90378 13.2271 11.5257 11.6751 12.2142C10.123 12.9027 7.74585 7.84414 7.92565 7.54186Z" fill="#8A92B2"/>
<path d="M7.94673 6.49351C7.76693 6.19119 9.12393 3.80806 10.654 2.95052C12.1842 2.093 14.1517 4.02891 13.99 5.67779C13.8282 7.32671 8.12653 6.79583 7.94673 6.49351Z" fill="#8A92B2"/>
<path d="M7.02115 5.95036C6.66151 5.95036 5.21387 3.618 5.21387 1.90296C5.21387 0.187925 7.92479 -0.49812 9.31503 0.462304C10.7053 1.42273 7.38075 5.9504 7.02115 5.95036Z" fill="#8A92B2"/>
</g>
<defs>
<clipPath id="clip0_1166_151531">
<rect width="14" height="14" fill="white"/>
</clipPath>
</defs>
</svg>
