<svg width="18" height="14" viewBox="0 0 18 14" fill="none" xmlns="http://www.w3.org/2000/svg">
<path d="M15.4655 3.48526C15.476 3.63715 15.476 3.78904 15.476 3.94233C15.476 8.61314 11.9202 14 5.41836 14V13.9972C3.49768 14 1.6169 13.4498 0 12.4125C0.279282 12.4461 0.559965 12.4629 0.841347 12.4636C2.43305 12.465 3.97925 11.9309 5.23147 10.9475C3.71887 10.9188 2.39245 9.93256 1.92908 8.49275C2.45894 8.59494 3.00491 8.57394 3.52498 8.43185C1.87588 8.09867 0.689457 6.64976 0.689457 4.96707V4.92227C1.18083 5.19596 1.73099 5.34785 2.29376 5.36465C0.740553 4.32661 0.261783 2.26034 1.19972 0.644843C2.99441 2.8532 5.64234 4.19572 8.48486 4.33781C8.19998 3.11009 8.58916 1.82357 9.5075 0.960523C10.9312 -0.377792 13.1704 -0.309197 14.5087 1.11381C15.3003 0.957723 16.0591 0.667242 16.7534 0.255668C16.4896 1.07392 15.9373 1.76897 15.1995 2.21064C15.9002 2.12805 16.5848 1.94046 17.2294 1.65418C16.7548 2.36533 16.1571 2.9848 15.4655 3.48526Z" fill="#8A92B2"/>
</svg>
