<svg xmlns="http://www.w3.org/2000/svg" width="14" height="10" viewBox="0 0 14 10" fill="none">
<path d="M7.6298 0.152335C7.48605 -0.0507783 7.18192 -0.0507783 7.03817 0.152335L4.67471 3.49183L1.32962 2.1684C1.05612 2.0602 0.773768 2.30397 0.84521 2.58662L2.28956 8.30091C2.32974 8.45989 2.47417 8.57143 2.63986 8.57143H12.0281C12.1938 8.57143 12.3382 8.45989 12.3784 8.30091L13.8228 2.58662C13.8942 2.30397 13.6118 2.0602 13.3383 2.1684L9.99325 3.49183L7.6298 0.152335ZM1.7171 3.09101L4.67228 4.26017C4.82796 4.32177 5.00603 4.26925 5.10219 4.13338L7.33398 0.979926L9.56578 4.13338C9.66193 4.26925 9.84001 4.32177 9.99569 4.26017L12.9509 3.09101L11.7462 7.85714H2.92179L1.7171 3.09101ZM2.63986 10C2.44044 10 2.27877 9.8401 2.27877 9.64286C2.27877 9.44561 2.44044 9.28572 2.63986 9.28572H12.0281C12.2275 9.28572 12.3892 9.44561 12.3892 9.64286C12.3892 9.8401 12.2275 10 12.0281 10H2.63986Z" fill="#555555"/>
</svg>