<svg xmlns="http://www.w3.org/2000/svg" width="16" height="10" viewBox="0 0 16 10" fill="none">
<path d="M14.1433 5.73659L12.2182 5.11539C14.6029 3.66114 13.533 -0.00233597 10.6742 1.11768e-06C7.81548 -0.000201947 6.7454 3.65886 9.13058 5.11539L7.20562 5.73659C6.7132 5.89488 6.28486 6.19938 5.98147 6.60681C5.67807 7.01425 5.51507 7.50388 5.51563 8.00611V9.05282C5.51592 9.30394 5.61912 9.54469 5.80256 9.72226C5.98601 9.89983 6.23473 9.99971 6.49416 10H14.8546C15.114 9.99971 15.3627 9.89982 15.5462 9.72225C15.7296 9.54467 15.8328 9.30391 15.8331 9.05279V8.00608C15.8336 7.50389 15.6706 7.01431 15.3672 6.6069C15.0639 6.19949 14.6356 5.89496 14.1433 5.73659ZM8.56764 2.77769C8.6562 0.0825526 12.6929 0.0833428 12.7811 2.77773C12.6925 5.47263 8.65578 5.47216 8.56764 2.77769ZM15.0702 9.05279C15.0702 9.10814 15.0475 9.16122 15.007 9.20037C14.9666 9.23951 14.9118 9.26152 14.8546 9.26155H6.49416C6.43697 9.26152 6.38214 9.23951 6.3417 9.20037C6.30126 9.16122 6.27852 9.10814 6.27849 9.05279V8.00608C6.27812 7.65888 6.39081 7.32039 6.60055 7.03873C6.81029 6.75707 7.10641 6.54656 7.44682 6.43712L9.7097 5.70683C10.336 5.50617 11.0125 5.50617 11.6388 5.70683L13.9019 6.43712C14.2423 6.54659 14.5384 6.7571 14.7482 7.03876C14.9579 7.32041 15.0706 7.65888 15.0702 8.00608L15.0702 9.05279Z" fill="#555555"/>
<path d="M5.9122 5.53959C5.92815 5.49217 5.93404 5.4421 5.92951 5.39242C5.92498 5.34273 5.91013 5.29444 5.88584 5.25045C5.86155 5.20646 5.82833 5.16767 5.78818 5.13641C5.74802 5.10515 5.70175 5.08207 5.65215 5.06855C6.05914 4.78022 6.36152 4.37471 6.51606 3.91C6.67059 3.44529 6.66937 2.94518 6.51256 2.48119C6.35576 2.01719 6.0514 1.61307 5.643 1.3266C5.23461 1.04014 4.7431 0.886001 4.23875 0.886231C3.73439 0.88646 3.24303 1.04105 2.83492 1.32788C2.4268 1.61472 2.12284 2.01912 1.96648 2.48326C1.81013 2.94739 1.80939 3.4475 1.96438 3.91207C2.11936 4.37664 2.42214 4.78187 2.82941 5.06984L1.41528 5.52517C1.00304 5.65909 0.644665 5.91495 0.390727 6.25663C0.136789 6.5983 0.000116358 7.00854 0 7.42945V8.27493C0.000251395 8.49614 0.0911445 8.70821 0.252737 8.86462C0.414329 9.02104 0.633423 9.10902 0.861949 9.10926H4.37121C4.47112 9.10742 4.5663 9.06771 4.63628 8.99867C4.70626 8.92963 4.74547 8.83676 4.74546 8.74004C4.74546 8.64331 4.70625 8.55045 4.63626 8.48141C4.56628 8.41237 4.4711 8.37267 4.37119 8.37084H0.861949C0.835888 8.37018 0.811082 8.35987 0.792647 8.34203C0.774211 8.32418 0.763551 8.30017 0.762864 8.27495V7.42946C0.762995 7.16336 0.849416 6.90401 1.00994 6.68798C1.17047 6.47195 1.397 6.31015 1.65759 6.22539C2.59462 5.97074 4.00776 5.24555 4.99996 5.63876L5.43094 5.77541C5.47852 5.79074 5.52877 5.79679 5.57879 5.79322C5.62881 5.78964 5.67759 5.77651 5.72234 5.75459C5.76709 5.73266 5.8069 5.70238 5.83949 5.66547C5.87207 5.62857 5.89679 5.58579 5.9122 5.53959ZM4.23985 4.78117C3.81074 4.77714 3.40061 4.60931 3.09865 4.31417C2.79668 4.01903 2.62729 3.62044 2.6273 3.20506C2.6273 2.78968 2.79671 2.3911 3.09868 2.09597C3.40066 1.80084 3.81078 1.63302 4.23989 1.62901C4.669 1.63303 5.07912 1.80086 5.38109 2.096C5.68305 2.39114 5.85245 2.78973 5.85244 3.20511C5.85243 3.62049 5.68303 4.01907 5.38106 4.3142C5.07908 4.60933 4.66896 4.77715 4.23985 4.78117Z" fill="#555555"/>
</svg>