<svg xmlns="http://www.w3.org/2000/svg" width="99" height="24" viewBox="0 0 99 24" fill="none">
<path d="M11 10.9998C-2.27316 3.66924 3.66957 -2.27363 11 10.9998Z" fill="white"/>
<path fill-rule="evenodd" clip-rule="evenodd" d="M6.08859 4.31418C7.47753 5.51631 9.22838 7.64128 11.0638 10.9647L11.1858 11.1857L10.9648 11.0636C7.64147 9.22822 5.51655 7.47733 4.31445 6.08836C3.71376 5.39429 3.3409 4.78762 3.16572 4.30335C2.99266 3.82495 3.00441 3.43955 3.22213 3.22183C3.43984 3.00411 3.82523 2.99236 4.30363 3.16543C4.78788 3.34061 5.39454 3.71347 6.08859 4.31418ZM10.8122 10.812C7.62693 9.02763 5.58538 7.33423 4.42461 5.99302C3.83043 5.30648 3.46963 4.71519 3.30273 4.25379C3.1337 3.78654 3.17144 3.47856 3.32515 3.32485C3.47885 3.17114 3.78682 3.1334 4.25406 3.30243C4.71545 3.46934 5.30672 3.83015 5.99325 4.42434C7.33442 5.58513 9.02778 7.62673 10.8122 10.812Z" fill="white"/>
<path d="M11 10.9998C24.2732 18.3304 18.3304 24.2733 11 10.9998Z" fill="white"/>
<path fill-rule="evenodd" clip-rule="evenodd" d="M10.8145 10.8141L11.0356 10.9362C14.3589 12.7716 16.4838 14.5225 17.6859 15.9114C18.2866 16.6055 18.6594 17.2122 18.8346 17.6965C19.0077 18.1749 18.9959 18.5603 18.7782 18.778C18.5605 18.9957 18.1751 19.0074 17.6967 18.8344C17.2125 18.6592 16.6058 18.2863 15.9118 17.6856C14.5228 16.4835 12.772 14.3585 10.9366 11.0352L10.8145 10.8141ZM11.1882 11.1878C12.9726 14.3731 14.6659 16.4147 16.0071 17.5755C16.6936 18.1697 17.2849 18.5305 17.7463 18.6974C18.2135 18.8664 18.5215 18.8287 18.6752 18.675C18.8289 18.5212 18.8666 18.2133 18.6976 17.746C18.5307 17.2846 18.1699 16.6933 17.5757 16.0068C16.415 14.6656 14.3734 12.9722 11.1882 11.1878Z" fill="white"/>
<path d="M11 10.9998C3.66957 24.2733 -2.27316 18.3304 11 10.9998Z" fill="white"/>
<path fill-rule="evenodd" clip-rule="evenodd" d="M11.1858 10.8141L11.0638 11.0352C9.22838 14.3585 7.47753 16.4835 6.08859 17.6856C5.39454 18.2863 4.78788 18.6592 4.30363 18.8344C3.82523 19.0074 3.43984 18.9957 3.22213 18.778C3.00441 18.5603 2.99266 18.1749 3.16572 17.6965C3.3409 17.2122 3.71376 16.6055 4.31445 15.9114C5.51655 14.5225 7.64147 12.7716 10.9648 10.9362L11.1858 10.8141ZM10.8122 11.1878C7.62693 12.9722 5.58538 14.6656 4.42461 16.0068C3.83043 16.6933 3.46963 17.2846 3.30273 17.746C3.1337 18.2133 3.17144 18.5212 3.32515 18.675C3.47885 18.8287 3.78682 18.8664 4.25406 18.6974C4.71545 18.5305 5.30672 18.1697 5.99325 17.5755C7.33442 16.4147 9.02779 14.3731 10.8122 11.1878Z" fill="white"/>
<path d="M11 10.9998C18.3304 -2.27363 24.2732 3.66924 11 10.9998Z" fill="white"/>
<path fill-rule="evenodd" clip-rule="evenodd" d="M17.6859 6.08836C16.4838 7.47733 14.3589 9.22822 11.0356 11.0636L10.8145 11.1857L10.9366 10.9647C12.772 7.64128 14.5228 5.51631 15.9118 4.31418C16.6058 3.71347 17.2125 3.34061 17.6967 3.16543C18.1751 2.99236 18.5605 3.00411 18.7782 3.22183C18.9959 3.43955 19.0077 3.82495 18.8346 4.30335C18.6594 4.78762 18.2866 5.39429 17.6859 6.08836ZM11.1882 10.812C12.9726 7.62673 14.6659 5.58513 16.0071 4.42434C16.6936 3.83015 17.2849 3.46934 17.7463 3.30243C18.2135 3.1334 18.5215 3.17114 18.6752 3.32485C18.8289 3.47856 18.8666 3.78654 18.6976 4.25379C18.5307 4.71519 18.1699 5.30648 17.5757 5.99302C16.415 7.33423 14.3734 9.02763 11.1882 10.812Z" fill="white"/>
<path d="M10.9991 11.0001C15.2008 25.5695 6.79737 25.5695 10.9991 11.0001Z" fill="white"/>
<path fill-rule="evenodd" clip-rule="evenodd" d="M10.9991 10.7372L11.0691 10.9799C12.1211 14.6278 12.3856 17.3684 12.2535 19.2006C12.1875 20.1162 12.0222 20.8088 11.8036 21.2751C11.5878 21.7358 11.307 22 10.9991 22C10.6912 22 10.4104 21.7358 10.1946 21.2751C9.97603 20.8088 9.81072 20.1162 9.74471 19.2006C9.61261 17.3684 9.87709 14.6278 10.9291 10.9799L10.9991 10.7372ZM10.9991 11.2658C10.0087 14.7799 9.76247 17.421 9.89002 19.1901C9.95532 20.0958 10.1183 20.769 10.3265 21.2133C10.5373 21.6632 10.7818 21.8543 10.9991 21.8543C11.2164 21.8543 11.4609 21.6632 11.6717 21.2133C11.8799 20.769 12.0429 20.0958 12.1082 19.1901C12.2357 17.421 11.9896 14.7799 10.9991 11.2658Z" fill="white"/>
<path d="M11 10.9998C-3.56908 15.2017 -3.56908 6.79802 11 10.9998Z" fill="white"/>
<path fill-rule="evenodd" clip-rule="evenodd" d="M2.79931 9.74542C4.63147 9.61332 7.37207 9.8778 11.0198 10.9298L11.2625 10.9998L11.0198 11.0698C7.37207 12.1219 4.63147 12.3864 2.79931 12.2543C1.88378 12.1882 1.19115 12.0229 0.724858 11.8044C0.264209 11.5885 0 11.3077 0 10.9998C0 10.692 0.264209 10.4112 0.724858 10.1953C1.19115 9.97674 1.88378 9.81143 2.79931 9.74542ZM10.734 10.9998C7.21994 11.9903 4.57894 12.2365 2.80979 12.1089C1.90418 12.0436 1.23096 11.8807 0.786685 11.6725C0.336767 11.4616 0.145692 11.2172 0.145692 10.9998C0.145692 10.7825 0.336767 10.5381 0.786685 10.3272C1.23096 10.119 1.90418 9.95603 2.80979 9.89073C4.57894 9.76317 7.21994 10.0094 10.734 10.9998Z" fill="white"/>
<path d="M11 10.9998C25.5691 6.79802 25.5691 15.2017 11 10.9998Z" fill="white"/>
<path fill-rule="evenodd" clip-rule="evenodd" d="M19.2007 12.2543C17.3685 12.3864 14.6279 12.1219 10.9802 11.0698L10.7375 10.9998L10.9802 10.9298C14.6279 9.8778 17.3685 9.61332 19.2007 9.74542C20.1162 9.81143 20.8088 9.97674 21.2751 10.1953C21.7358 10.4112 22 10.692 22 10.9998C22 11.3077 21.7358 11.5885 21.2751 11.8044C20.8088 12.0229 20.1162 12.1882 19.2007 12.2543ZM11.266 10.9998C14.7801 10.0094 17.4211 9.76317 19.1902 9.89073C20.0958 9.95603 20.769 10.119 21.2133 10.3272C21.6632 10.5381 21.8543 10.7825 21.8543 10.9998C21.8543 11.2172 21.6632 11.4616 21.2133 11.6725C20.769 11.8807 20.0958 12.0436 19.1902 12.1089C17.4211 12.2365 14.7801 11.9903 11.266 10.9998Z" fill="white"/>
<path d="M10.9991 11.0001C6.79737 -3.56933 15.2008 -3.56933 10.9991 11.0001Z" fill="white"/>
<path fill-rule="evenodd" clip-rule="evenodd" d="M12.2535 2.79937C12.3856 4.63157 12.1211 7.37225 11.0691 11.0201L10.9991 11.2628L10.9291 11.0201C9.87709 7.37225 9.61261 4.63157 9.74471 2.79937C9.81072 1.88382 9.97603 1.19118 10.1946 0.724875C10.4104 0.264217 10.6912 0 10.9991 0C11.307 0 11.5878 0.264217 11.8036 0.724875C12.0222 1.19118 12.1875 1.88382 12.2535 2.79937ZM10.9991 10.7342C10.0087 7.22011 9.76247 4.57905 9.89002 2.80985C9.95532 1.90422 10.1183 1.23099 10.3265 0.7867C10.5373 0.33677 10.7818 0.145693 10.9991 0.145693C11.2164 0.145693 11.4609 0.33677 11.6717 0.7867C11.8799 1.23099 12.0429 1.90422 12.1082 2.80985C12.2357 4.57905 11.9896 7.22011 10.9991 10.7342Z" fill="white"/>
<path d="M33.4041 19.767C31.4313 19.767 29.8682 19.2206 28.7149 18.128C27.5615 17.0202 26.9849 15.4419 26.9849 13.3932V9.56902C26.9849 7.52033 27.5615 5.94967 28.7149 4.85703C29.8682 3.74922 31.4313 3.19531 33.4041 3.19531C35.3617 3.19531 36.8717 3.73404 37.934 4.8115C39.0114 5.87379 39.5502 7.33823 39.5502 9.20481V9.34139H36.5909V9.11376C36.5909 8.17288 36.3254 7.39893 35.7942 6.79191C35.2783 6.18489 34.4815 5.88138 33.4041 5.88138C32.3418 5.88138 31.5072 6.20765 30.9001 6.8602C30.2931 7.51274 29.9896 8.40051 29.9896 9.5235V13.4388C29.9896 14.5466 30.2931 15.4344 30.9001 16.1021C31.5072 16.7546 32.3418 17.0809 33.4041 17.0809C34.4815 17.0809 35.2783 16.7774 35.7942 16.1704C36.3254 15.5482 36.5909 14.7742 36.5909 13.8485V13.4388H39.5502V13.7575C39.5502 15.624 39.0114 17.0961 37.934 18.1735C36.8717 19.2358 35.3617 19.767 33.4041 19.767Z" fill="white"/>
<path d="M41.3732 19.4483V3.514H44.2414V19.4483H41.3732Z" fill="white"/>
<path d="M52.0756 19.767C50.9526 19.767 49.9434 19.5393 49.0481 19.0841C48.1527 18.6288 47.447 17.9687 46.9311 17.1037C46.4151 16.2387 46.1571 15.1991 46.1571 13.9851V13.6209C46.1571 12.4068 46.4151 11.3673 46.9311 10.5023C47.447 9.63731 48.1527 8.97718 49.0481 8.52191C49.9434 8.06665 50.9526 7.83902 52.0756 7.83902C53.1985 7.83902 54.2077 8.06665 55.1031 8.52191C55.9984 8.97718 56.7041 9.63731 57.22 10.5023C57.736 11.3673 57.994 12.4068 57.994 13.6209V13.9851C57.994 15.1991 57.736 16.2387 57.22 17.1037C56.7041 17.9687 55.9984 18.6288 55.1031 19.0841C54.2077 19.5393 53.1985 19.767 52.0756 19.767ZM52.0756 17.2175C52.9557 17.2175 53.6842 16.9367 54.2608 16.3752C54.8375 15.7986 55.1258 14.9791 55.1258 13.9168V13.6892C55.1258 12.6269 54.8375 11.815 54.2608 11.2535C53.6993 10.6768 52.9709 10.3885 52.0756 10.3885C51.1954 10.3885 50.467 10.6768 49.8903 11.2535C49.3136 11.815 49.0253 12.6269 49.0253 13.6892V13.9168C49.0253 14.9791 49.3136 15.7986 49.8903 16.3752C50.467 16.9367 51.1954 17.2175 52.0756 17.2175Z" fill="white"/>
<path d="M59.9252 19.4483V8.1577H62.7478V9.63731H63.1576C63.3397 9.24275 63.6811 8.87095 64.1819 8.52191C64.6827 8.1577 65.4415 7.9756 66.4582 7.9756C67.3384 7.9756 68.1048 8.18047 68.7573 8.5902C69.425 8.98477 69.941 9.53867 70.3052 10.2519C70.6694 10.95 70.8515 11.7695 70.8515 12.7104V19.4483H67.9834V12.938C67.9834 12.0882 67.7709 11.4508 67.346 11.0259C66.9363 10.601 66.3444 10.3885 65.5705 10.3885C64.6903 10.3885 64.0074 10.6844 63.5218 11.2763C63.0362 11.8529 62.7934 12.6648 62.7934 13.7119V19.4483H59.9252Z" fill="white"/>
<path d="M73.2359 19.4483V8.1577H76.104V19.4483H73.2359ZM74.67 6.83743C74.154 6.83743 73.7139 6.6705 73.3497 6.33664C73.0006 6.00278 72.8261 5.56269 72.8261 5.01637C72.8261 4.47005 73.0006 4.02997 73.3497 3.6961C73.7139 3.36224 74.154 3.19531 74.67 3.19531C75.2011 3.19531 75.6412 3.36224 75.9902 3.6961C76.3393 4.02997 76.5138 4.47005 76.5138 5.01637C76.5138 5.56269 76.3393 6.00278 75.9902 6.33664C75.6412 6.6705 75.2011 6.83743 74.67 6.83743Z" fill="white"/>
<path d="M80.4327 19.4483V10.5251H77.5645V8.1577H80.4327V6.06348C80.4327 5.28953 80.6603 4.67492 81.1156 4.21966C81.586 3.74922 82.193 3.514 82.9366 3.514H85.8958V5.88138H83.9382C83.5133 5.88138 83.3008 6.10901 83.3008 6.56427V8.1577H86.2601V10.5251H83.3008V19.4483H80.4327Z" fill="white"/>
<path d="M88.9935 24.0009V21.497H95.1395C95.5645 21.497 95.7769 21.2693 95.7769 20.8141V17.9687H95.3672C95.2458 18.2266 95.0561 18.4846 94.7981 18.7426C94.5401 19.0006 94.1911 19.2131 93.751 19.38C93.3109 19.5469 92.7494 19.6304 92.0665 19.6304C91.1863 19.6304 90.4124 19.4331 89.7447 19.0385C89.0921 18.6288 88.5837 18.0673 88.2195 17.3541C87.8553 16.6408 87.6732 15.8213 87.6732 14.8956V8.1577H90.5414V14.668C90.5414 15.5178 90.7462 16.1552 91.156 16.5801C91.5809 17.005 92.1803 17.2175 92.9543 17.2175C93.8345 17.2175 94.5173 16.9291 95.003 16.3525C95.4886 15.7606 95.7314 14.9412 95.7314 13.894V8.1577H98.5995V21.4514C98.5995 22.2254 98.3719 22.84 97.9167 23.2953C97.4614 23.7657 96.8544 24.0009 96.0956 24.0009H88.9935Z" fill="white"/>
</svg>