<?xml version="1.0" encoding="utf-8"?>
<svg viewBox="-127 240.9 100 100" width="100" height="100" xmlns="http://www.w3.org/2000/svg">
  <rect x="-127.118" y="240.972" width="100" height="100" fill="#F0B90B" />
  <path d="M -77 251.95 L -97.7 263.85 L -90.1 268.25 L -77 260.75 L -63.9 268.25 L -56.3 263.85 L -77 251.95 Z M -63.9 274.55 L -56.3 278.95 L -56.3 287.75 L -69.4 295.25 L -69.4 310.25 L -77 314.65 L -84.6 310.25 L -84.6 295.25 L -97.7 287.75 L -97.7 278.95 L -90.1 274.55 L -77 282.05 L -63.9 274.55 Z M -56.3 294.05 L -56.3 302.85 L -63.9 307.25 L -63.9 298.45 L -56.3 294.05 Z M -64 313.45 L -50.9 305.95 L -50.9 290.95 L -43.3 286.55 L -43.3 310.45 L -64 322.35 L -64 313.45 Z M -50.9 275.85 L -58.5 271.45 L -50.9 267.05 L -43.3 271.45 L -43.3 280.25 L -50.9 284.651 L -50.9 275.85 Z M -84.6 325.45 L -84.6 316.65 L -77 321.05 L -69.4 316.65 L -69.4 325.45 L -77 329.85 L -84.6 325.45 Z M -90.1 307.25 L -97.7 302.85 L -97.7 294.05 L -90.1 298.45 L -90.1 307.25 Z M -77 275.85 L -84.6 271.45 L -77 267.05 L -69.4 271.45 L -77 275.85 Z M -95.5 271.45 L -103.1 275.85 L -103.1 284.651 L -110.7 280.25 L -110.7 271.45 L -103.1 267.05 C -103.1 267.05 -95.5 271.45 -95.5 271.45 Z M -110.7 286.45 L -103.1 290.85 L -103.1 305.85 L -90 313.35 L -90 322.15 L -110.7 310.25 L -110.7 286.45 Z" fill="#FFF" />
</svg>