<svg width="42" height="38" viewBox="0 0 42 38" fill="none" xmlns="http://www.w3.org/2000/svg">
<path d="M23.932 18.893C23.932 19.1581 23.932 19.4216 23.932 19.9183C23.932 21.2097 24.5198 21.8099 25.645 21.8099C26.0094 21.8099 26.7002 21.8099 27.0641 21.8099C28.4054 21.8099 29.318 22.9005 29.318 24.0617C29.318 24.2604 29.318 24.8909 29.318 25.2548C29.318 26.5462 28.7327 27.3245 27.3646 27.3245C27.1325 27.3245 25.9842 27.3245 25.7196 27.3245C24.2805 27.3245 23.5306 26.6667 23.5306 25.3228C23.5306 25.1241 23.5306 24.543 23.5306 24.212C23.5306 23.1522 22.7693 22.4569 21.8418 22.4569C21.5438 22.4569 19.7562 22.4569 19.3923 22.4569C18.1673 22.4569 17.8693 23.2845 17.8693 24.212C17.8693 24.5435 17.8693 25.9023 17.8693 26.399C17.8693 27.5581 18.5646 27.9555 19.4587 27.9555C19.889 27.9555 20.5036 27.9555 20.9673 27.9555C22.671 27.9555 23.4894 28.7029 23.4894 29.896C23.4894 30.2933 23.4894 30.091 23.4894 30.72C23.4894 32.0758 24.2604 32.5894 25.487 32.5894C26.4469 32.5894 27.6858 32.5894 28.0168 32.5894C29.2691 32.5894 29.8811 31.9285 29.8811 30.7988C29.8811 30.335 29.8811 30.2717 29.8811 29.8743C29.8811 28.3184 30.7437 27.8217 32.3995 27.8217C32.8628 27.8217 33.9097 27.8217 34.1413 27.8217C35.1018 27.8217 35.5439 27.2256 35.5439 26.4309C35.5439 25.6367 35.5439 24.2789 35.5439 23.2191C35.5439 22.1599 34.9479 21.6632 33.7892 21.6632C33.292 21.6632 32.2986 21.6632 31.7026 21.6632C30.4575 21.6632 29.3411 20.7218 29.3411 18.9815C29.3411 18.4184 29.3411 18.5193 29.3411 17.9562C29.3411 16.6648 28.7533 16.0647 27.6277 16.0647C27.2632 16.0647 26.573 16.0647 26.2086 16.0647C24.8673 16.0647 23.9547 14.9745 23.9547 13.8133C23.9547 13.6147 23.9547 12.9841 23.9547 12.6202C23.9547 11.3288 24.5404 10.5506 25.9085 10.5506C26.1401 10.5506 27.2885 10.5506 27.553 10.5506C28.9922 10.5506 29.7426 11.2084 29.7426 12.5523C29.7426 12.751 29.7426 13.3321 29.7426 13.663C29.7426 14.7228 30.5039 15.4177 31.4314 15.4177C31.7294 15.4177 33.5159 15.4177 33.8804 15.4177C35.1054 15.4177 35.4034 14.59 35.4034 13.663C35.4034 13.3316 35.4034 11.9727 35.4034 11.476C35.4034 10.3174 34.708 9.92007 33.814 9.92007C33.3837 9.92007 32.7691 9.92007 32.3053 9.92007C30.6017 9.92007 29.7833 9.17271 29.7833 7.97961C29.7833 7.58225 29.7833 7.8288 29.7833 7.19931C29.7833 5.84408 29.0498 5.28613 27.8232 5.28613C26.8633 5.28613 25.5868 5.28613 25.2559 5.28613C24.0036 5.28613 23.3916 5.94702 23.3916 7.07732C23.3916 7.54056 23.3916 7.60387 23.3916 8.00123C23.3916 9.55719 22.5289 10.0539 20.8731 10.0539C20.4099 10.0539 19.3625 10.0539 19.1308 10.0539C18.1709 10.0539 17.7288 10.6499 17.7288 11.4446C17.7288 12.2393 17.7288 13.5966 17.7288 14.6564C17.7288 15.7162 18.3243 16.2129 19.4839 16.2129C19.9801 16.2129 20.9735 16.2129 21.5695 16.2129C22.8156 16.2114 23.932 17.1528 23.932 18.893Z" fill="black"/>
<path d="M39.4638 21.6913C40.4649 21.6913 41.2761 20.8796 41.2761 19.879V18.4954C41.2761 17.4943 40.4649 16.6826 39.4638 16.6826H38.0802C37.0796 16.6826 36.2679 17.4943 36.2679 18.4954V19.879C36.2679 20.8801 37.0796 21.6913 38.0802 21.6913H39.4638Z" fill="black"/>
<path d="M13.9739 10.0528C14.5699 10.0528 15.0249 10.0528 15.5221 10.0528C16.6807 10.0528 17.2768 9.5561 17.2768 8.49683C17.2768 8.20396 17.2768 7.64807 17.2768 7.48079C17.3349 5.83681 18.4215 5.08327 19.6331 5.08327C20.2286 5.08327 20.6846 5.08327 21.1813 5.08327C22.341 5.08327 22.9365 4.58658 22.9365 3.52731C22.9365 2.46803 22.9365 2.18546 22.9365 1.39075C22.9365 0.596034 22.4949 0 21.5344 0C21.3028 0 19.0664 0 18.6032 0C17.653 0 17.249 0.440077 17.249 1.43192C17.249 1.79634 17.249 2.48553 17.249 2.68473C17.249 3.81451 16.3837 4.87379 15.1021 4.93092C14.3372 4.93092 13.2507 4.93092 12.9434 4.93092C11.9938 4.93092 11.5892 5.371 11.5892 6.36284C11.5892 6.72726 11.5892 7.45557 11.5892 7.65373C11.5892 8.81492 10.6777 9.90559 9.33529 9.90559C8.97139 9.90559 8.28065 9.90559 7.91624 9.90559C6.79005 9.90559 6.20277 10.5052 6.20277 11.7966C6.20277 12.3592 6.20277 12.8147 6.20277 13.3773C6.20277 15.1175 5.08688 16.0589 3.84128 16.0589C3.24525 16.0589 2.25186 16.0589 1.75465 16.0589C0.596034 16.0589 0 16.5556 0 17.6149C0 17.7523 0 20.9605 0 21.0974C0 22.1572 0.596034 22.6534 1.75465 22.6534C2.25186 22.6534 3.24525 22.6534 3.84128 22.6534C5.08688 22.6534 6.20277 23.1933 6.20277 24.9341C6.20277 25.4967 6.20277 25.6125 6.20277 26.1756C6.20277 27.467 6.79057 28.0666 7.91624 28.0666C8.28065 28.0666 8.97139 28.0666 9.33529 28.0666C10.6771 28.0666 11.5892 29.1573 11.5892 30.3185C11.5892 30.5171 11.5892 31.2609 11.5892 31.6253C11.5892 32.6172 11.9938 33.0572 12.9434 33.0572C13.2522 33.0572 14.3465 33.0572 15.1119 33.0572L15.1011 33.0696C16.3832 33.1262 17.2479 34.186 17.2479 35.3158C17.2479 35.5145 17.2479 36.2042 17.2479 36.5681C17.2479 37.5599 17.652 38 18.6021 38C19.0654 38 21.3013 38 21.5329 38C22.4933 38 22.9355 37.404 22.9355 36.6093C22.9355 35.8145 22.9355 35.5325 22.9355 34.4727C22.9355 33.4129 22.3394 32.9162 21.1808 32.9162C20.6841 32.9162 20.2281 32.9162 19.6321 32.9162C18.4235 32.9162 17.3401 32.1663 17.2768 30.5316C17.2768 30.3365 17.2768 29.8254 17.2768 29.4749C17.2768 28.4151 16.6807 27.9189 15.5221 27.9189C15.0249 27.9189 14.5699 27.9189 13.9739 27.9189C12.7277 27.9189 11.6113 26.978 11.6113 25.2378C11.6113 24.9727 11.6113 24.8945 11.6113 24.3972C11.6113 23.1058 12.1997 22.5062 13.3253 22.5062C13.6897 22.5062 14.38 22.5062 14.7439 22.5062C16.0857 22.5062 16.9983 21.4155 16.9983 20.2543C16.9983 20.1231 16.9983 18.5887 16.9983 18.4575C16.9983 17.2963 16.0862 16.2056 14.7439 16.2056C14.38 16.2056 13.6897 16.2056 13.3253 16.2056C12.1991 16.2056 11.6113 15.6055 11.6113 14.3146C11.6113 13.8179 11.6113 12.8502 11.6113 12.5852C11.6113 10.8455 12.7277 10.0528 13.9739 10.0528Z" fill="black"/>
</svg>
