<svg width="108" height="20" viewBox="0 0 108 20" fill="none" xmlns="http://www.w3.org/2000/svg">
<path fill-rule="evenodd" clip-rule="evenodd" d="M15.4736 11.8236H11.8246V8.17467H8.17546V4.52555H15.4736V11.8236ZM4.52637 15.4743H8.17535V11.8254H4.52637V15.4743ZM0 2.1858V17.8142C0 19.0213 0.978578 20 2.1858 20H17.8142C19.0214 20 20 19.0213 20 17.8142V2.1858C20 0.978578 19.0214 0 17.8142 0H2.1858C0.978578 0 0 0.978578 0 2.1858Z" fill="white"/>
<path fill-rule="evenodd" clip-rule="evenodd" d="M36.9218 2.65039H33.3166V4.45308H35.1192V6.25559H36.9218V2.65039Z" fill="white"/>
<path fill-rule="evenodd" clip-rule="evenodd" d="M96.2487 6.25422H98.9803V3.52246H96.2487V6.25422Z" fill="white"/>
<path fill-rule="evenodd" clip-rule="evenodd" d="M37.8047 11.3398V6.25537H40.2829V11.542C40.2829 12.0684 40.4448 12.4903 40.7689 12.8086C41.0933 13.1266 41.5064 13.2859 42.0081 13.2859C42.4973 13.2859 42.9013 13.1235 43.2196 12.7993C43.5377 12.4752 43.6968 12.0558 43.6968 11.542V6.25537H46.1748V11.3398C46.1748 12.5881 45.78 13.604 44.9909 14.3869C44.2015 15.1703 43.2074 15.5618 42.0081 15.5618C40.7843 15.5618 39.7781 15.1733 38.9888 14.3959C38.1993 13.619 37.8047 12.6005 37.8047 11.3398Z" fill="white"/>
<path fill-rule="evenodd" clip-rule="evenodd" d="M54.3777 10.8081C54.3777 10.0618 54.1578 9.45613 53.717 8.99058C53.2768 8.52614 52.7135 8.29346 52.0285 8.29346C51.3678 8.29346 50.8199 8.51376 50.3857 8.95417C49.951 9.39477 49.7341 10.0065 49.7341 10.7898C49.7341 11.573 49.951 12.1879 50.3857 12.634C50.8199 13.0813 51.3678 13.3044 52.0285 13.3044C52.7013 13.3044 53.2613 13.072 53.708 12.6067C54.1547 12.1417 54.3777 11.5423 54.3777 10.8081ZM55.635 7.40238C56.4732 8.30169 56.8925 9.43054 56.8925 10.7889C56.8925 12.1471 56.4732 13.2821 55.635 14.1938C54.7971 15.1053 53.7477 15.5612 52.4872 15.5612C51.3491 15.5612 50.4436 15.1942 49.7706 14.4599V18.6447H47.2928V6.25486H49.5688V7.39332C50.1929 6.49992 51.1656 6.05322 52.4872 6.05322C53.7477 6.05322 54.7971 6.50269 55.635 7.40238Z" fill="white"/>
<path fill-rule="evenodd" clip-rule="evenodd" d="M60.2869 9.88901H64.417C64.4046 9.33845 64.2117 8.89489 63.8385 8.55834C63.465 8.22197 63.0032 8.05379 62.4528 8.05379C61.9266 8.05379 61.4675 8.21883 61.0761 8.54928C60.6843 8.87936 60.4213 9.32643 60.2869 9.88901ZM66.6554 11.6339H60.2865C60.4332 12.2094 60.7295 12.653 61.1765 12.9648C61.6229 13.2771 62.1769 13.4331 62.8378 13.4331C63.7307 13.4331 64.5751 13.127 65.3707 12.5149L66.3985 14.204C65.3096 15.1096 64.0979 15.5622 62.7641 15.5622C61.3691 15.5864 60.1854 15.1306 59.2125 14.1947C58.2396 13.2583 57.7654 12.1296 57.7902 10.8082C57.7654 9.49874 58.2241 8.37303 59.1667 7.43084C60.1087 6.48846 61.2344 6.02975 62.5442 6.05415C63.7924 6.05415 64.817 6.45778 65.6184 7.26561C66.4199 8.07326 66.8208 9.07662 66.8208 10.2761C66.8208 10.7161 66.7655 11.1695 66.6554 11.6339Z" fill="white"/>
<path fill-rule="evenodd" clip-rule="evenodd" d="M73.4807 6.25431V8.43883H72.8198C72.0609 8.43883 71.4643 8.64083 71.0304 9.04466C70.5955 9.44829 70.3787 10.0358 70.3787 10.8067V15.3404H67.9007V6.25431H70.1769V7.33733C70.8129 6.54225 71.6453 6.14453 72.673 6.14453C72.9791 6.14453 73.2484 6.18112 73.4807 6.25431Z" fill="white"/>
<path fill-rule="evenodd" clip-rule="evenodd" d="M80.5065 15.3418H82.9845V1.35498H80.5065V15.3418ZM79.3235 1.35528V3.5764H78.7268C78.1516 3.5764 77.7323 3.68655 77.4695 3.90685C77.2063 4.12678 77.0749 4.48791 77.0749 4.98968V6.25604H79.3235V8.3487H77.0749V15.3421H74.5967V4.76957C74.5967 3.64385 74.9027 2.79352 75.5148 2.218C76.1262 1.64323 76.9889 1.35528 78.1026 1.35528H79.3235Z" fill="white"/>
<path fill-rule="evenodd" clip-rule="evenodd" d="M84.193 11.3398V6.25537H86.6712V11.542C86.6712 12.0684 86.8331 12.4903 87.1575 12.8086C87.4816 13.1266 87.8947 13.2859 88.3967 13.2859C88.8859 13.2859 89.2897 13.1235 89.6077 12.7993C89.926 12.4752 90.0849 12.0558 90.0849 11.542V6.25537H92.563V11.3398C92.563 12.5881 92.1686 13.604 91.379 14.3869C90.5899 15.1703 89.5954 15.5618 88.3967 15.5618C87.1726 15.5618 86.1663 15.1733 85.3773 14.3959C84.5876 13.619 84.193 12.6005 84.193 11.3398Z" fill="white"/>
<path fill-rule="evenodd" clip-rule="evenodd" d="M93.7707 15.3415H96.2487V6.25537H93.7707V15.3415Z" fill="white"/>
<path fill-rule="evenodd" clip-rule="evenodd" d="M104.075 12.6442C104.509 12.2038 104.727 11.5922 104.727 10.809C104.727 10.0257 104.507 9.41082 104.066 8.96412C103.625 8.51743 103.081 8.29435 102.433 8.29435C101.759 8.29435 101.199 8.52704 100.753 8.99148C100.306 9.45703 100.083 10.0564 100.083 10.7907C100.083 11.5373 100.303 12.1426 100.744 12.6076C101.184 13.0729 101.747 13.3053 102.433 13.3053C103.093 13.3053 103.641 13.085 104.075 12.6442ZM104.69 1.35547H107.168V15.3423H104.892V14.2225C104.268 15.1159 103.295 15.5626 101.974 15.5626C100.701 15.5626 99.6483 15.1128 98.8166 14.2135C97.984 13.3141 97.5684 12.1792 97.5684 10.8086C97.5684 9.43819 97.984 8.30306 98.8166 7.40374C99.6483 6.50406 100.701 6.05459 101.974 6.05459C103.123 6.05459 104.029 6.41572 104.69 7.13761V1.35547Z" fill="white"/>
<path fill-rule="evenodd" clip-rule="evenodd" d="M33.9287 8.38463L32.552 7.77918C32.0135 7.53466 31.6435 7.31732 31.4416 7.12715C31.2398 6.93789 31.1387 6.69006 31.1387 6.38419C31.1387 6.33872 31.1474 6.29843 31.1518 6.25537H28.6328C28.63 6.31673 28.6241 6.37643 28.6241 6.43908C28.6241 7.89542 29.6029 9.05791 31.561 9.92673L32.864 10.5139C33.4759 10.7957 33.8856 11.0312 34.0939 11.2206C34.302 11.4102 34.4061 11.6769 34.4061 12.0188C34.4061 12.4354 34.2529 12.7624 33.9472 13.0011C33.6411 13.2397 33.2188 13.3589 32.6806 13.3589C31.5546 13.3589 30.5634 12.7714 29.707 11.5969L28 12.8816C28.4772 13.7142 29.1226 14.3684 29.9365 14.8458C30.7501 15.3232 31.6649 15.5618 32.6806 15.5618C33.9163 15.5618 34.9321 15.2284 35.7275 14.5614C36.5228 13.8944 36.9207 13.0165 36.9207 11.9274C36.9207 11.1195 36.6819 10.4438 36.2049 9.89919C35.7275 9.35473 34.9687 8.85 33.9287 8.38463Z" fill="white"/>
</svg>
