<svg width="105" height="32" viewBox="0 0 105 32" fill="none" xmlns="http://www.w3.org/2000/svg">
<path d="M15.9659 1C15.0112 1 14.2306 1.78055 14.2306 2.73524C14.2306 3.68993 15.0112 4.47048 15.9659 4.47048C16.9206 4.47048 17.7011 3.68993 17.7011 2.73524C17.7011 1.78055 16.9206 1 15.9659 1ZM15.9659 1.62476C16.5828 1.62476 17.0763 2.11831 17.0763 2.73524C17.0763 3.35216 16.5828 3.84523 15.9659 3.84523C15.3489 3.84523 14.8557 3.35216 14.8557 2.73524C14.8557 2.11831 15.3489 1.62476 15.9659 1.62476ZM15.9659 4.68591C13.8945 4.68591 11.9496 5.23886 10.2744 6.20473C10.2532 6.2164 10.2335 6.23049 10.2155 6.24673C10.1588 6.29467 10.1209 6.36126 10.1088 6.43457C10.0967 6.50788 10.1111 6.58309 10.1495 6.64674L13.0262 11.5524C13.028 11.5559 13.03 11.5594 13.032 11.5628C13.0554 11.6008 13.0867 11.6332 13.1238 11.6581C13.1608 11.6829 13.2027 11.6995 13.2467 11.7068C13.2907 11.7141 13.3358 11.7119 13.3788 11.7003C13.4219 11.6887 13.462 11.6681 13.4964 11.6398C14.2278 11.2337 15.068 11.0017 15.9651 11.0017C16.8419 11.0017 17.6647 11.2228 18.3843 11.6119C18.4146 11.6626 18.4588 11.7037 18.5115 11.7304C18.5643 11.757 18.6235 11.7682 18.6824 11.7625C18.7412 11.7569 18.7972 11.7346 18.844 11.6984C18.8907 11.6622 18.9262 11.6135 18.9463 11.5579C18.9659 11.5204 18.9776 11.4793 18.9808 11.4371C18.9841 11.3949 18.9787 11.3526 18.965 11.3125L18.9708 8.13429C20.1082 8.56632 21.148 9.24897 21.9922 10.0894C21.9941 10.0913 21.996 10.0932 21.998 10.0951C22.5619 10.6591 23.4858 10.6591 24.0498 10.0951C24.6054 9.53949 24.6131 8.6347 24.0737 8.06877C24.0662 8.05989 24.0582 8.05143 24.0498 8.04344C21.9852 5.97887 19.1161 4.68591 15.9659 4.68591ZM15.9659 5.31106C18.945 5.31106 21.6563 6.53358 23.6085 8.48575C23.9336 8.81086 23.9336 9.32837 23.6085 9.65347C23.2845 9.9774 22.7692 9.97835 22.4439 9.65695C22.4428 9.6554 22.4416 9.65386 22.4404 9.65232C21.4392 8.65362 20.186 7.86416 18.8071 7.41291C18.7605 7.38798 18.7083 7.37529 18.6555 7.37601C18.5858 7.3771 18.5184 7.40145 18.4642 7.4452C18.4622 7.44672 18.4603 7.44826 18.4584 7.44982C18.4557 7.45171 18.453 7.45364 18.4503 7.45562C18.4109 7.49003 18.3808 7.53378 18.3627 7.58285C18.3446 7.63193 18.3391 7.68475 18.3467 7.7365L18.3421 10.8917C17.6181 10.5607 16.8128 10.3759 15.9661 10.3759C15.0498 10.3759 14.1823 10.5923 13.4136 10.9762L10.8476 6.59964C12.3705 5.77687 14.1124 5.30961 15.9661 5.30961L15.9659 5.31106ZM9.06936 7.52652C8.70459 7.52652 8.34019 7.6625 8.06032 7.93375C8.05457 7.93883 8.04901 7.94412 8.04365 7.9496C5.97909 10.0142 4.68573 12.8836 4.68573 16.0337C4.68573 18.0918 5.23161 20.0247 6.186 21.6926C6.20192 21.7365 6.22749 21.7762 6.26081 21.809C6.29413 21.8417 6.33435 21.8665 6.37853 21.8817C6.42272 21.8968 6.46972 21.9018 6.51611 21.8964C6.56249 21.891 6.60707 21.8752 6.64656 21.8503L11.5523 18.9741C11.5917 18.9518 11.6257 18.9212 11.6521 18.8845C11.6785 18.8478 11.6966 18.8058 11.7052 18.7614C11.7137 18.717 11.7126 18.6713 11.7018 18.6274C11.691 18.5835 11.6708 18.5425 11.6426 18.5071C11.2348 17.7747 11.002 16.9328 11.002 16.0337C11.002 15.1569 11.2231 14.3341 11.6122 13.6145C11.6668 13.5819 11.7102 13.5334 11.7365 13.4754C11.7628 13.4175 11.7708 13.3529 11.7594 13.2902C11.748 13.2276 11.7178 13.17 11.6728 13.125C11.6277 13.08 11.57 13.0499 11.5074 13.0386C11.4766 13.0284 11.4445 13.0231 11.4121 13.0228C11.3841 13.0225 11.3561 13.026 11.3289 13.0332L8.13436 13.0274C8.5662 11.8905 9.2485 10.851 10.0885 10.007C10.0904 10.0051 10.0923 10.0031 10.0942 10.0012C10.6582 9.43725 10.6582 8.51336 10.0942 7.94941C9.81227 7.66745 9.44129 7.52652 9.06936 7.52652ZM9.06946 8.14774C9.28012 8.14774 9.49078 8.22908 9.65333 8.39164C9.97754 8.71584 9.97822 9.23129 9.65449 9.55655C9.65332 9.5577 9.65217 9.55886 9.65102 9.56003C8.63968 10.5739 7.84218 11.846 7.39391 13.2455C7.39349 13.2482 7.39311 13.2509 7.39276 13.2536C7.39235 13.2555 7.39197 13.2574 7.3916 13.2594C7.37659 13.3109 7.37513 13.3655 7.38735 13.4178C7.39958 13.4701 7.42508 13.5184 7.4614 13.558C7.49771 13.5976 7.54362 13.6271 7.59469 13.6438C7.64575 13.6605 7.70026 13.6637 7.75293 13.6532L10.8926 13.6578C10.5617 14.3818 10.3772 15.1871 10.3772 16.0338C10.3772 16.9501 10.5936 17.8175 10.9776 18.5862L6.60109 21.1527C5.77819 19.6297 5.31092 17.8877 5.31092 16.0338C5.31092 13.0546 6.53332 10.3438 8.4855 8.39165C8.64803 8.22911 8.85883 8.14774 9.06946 8.14774ZM25.5227 10.1043C25.4629 10.1028 25.404 10.1184 25.3529 10.1494L20.4932 12.999C20.4504 13.0151 20.4116 13.0403 20.3796 13.0729C20.3476 13.1056 20.3231 13.1448 20.3079 13.188C20.2885 13.2395 20.2831 13.2953 20.2922 13.3496C20.3012 13.4039 20.3245 13.4549 20.3596 13.4973C20.7657 14.2286 20.9976 15.0687 20.9976 15.9658C20.9976 16.8468 20.7743 17.6734 20.3817 18.3954C20.3317 18.4296 20.2927 18.4775 20.2695 18.5334C20.2462 18.5892 20.2397 18.6507 20.2506 18.7102C20.2616 18.7697 20.2896 18.8248 20.3313 18.8687C20.373 18.9126 20.4265 18.9435 20.4854 18.9575C20.5431 18.9782 20.6057 18.9814 20.6652 18.9668L23.865 18.9714C23.432 20.1114 22.7472 21.1536 21.9041 21.9988C21.3402 22.5627 21.3402 23.486 21.9041 24.0499C22.4597 24.6056 23.3644 24.6134 23.9303 24.0742C23.9393 24.0666 23.9479 24.0585 23.9559 24.0499C26.0205 21.9854 27.3137 19.116 27.3137 15.9658C27.3137 13.8944 26.7613 11.9496 25.7954 10.2744C25.7884 10.2621 25.7806 10.2502 25.772 10.239C25.744 10.1985 25.7069 10.1652 25.6636 10.1417C25.6202 10.1183 25.5719 10.1055 25.5227 10.1043ZM25.3984 10.8473C26.2212 12.3702 26.6886 14.1121 26.6886 15.9659C26.6886 18.9438 25.4671 21.6541 23.5163 23.606C23.5159 23.6064 23.5155 23.6068 23.5152 23.6072C23.1901 23.9323 22.6726 23.9323 22.3475 23.6072C22.0235 23.2833 22.0226 22.7681 22.344 22.4427C22.3455 22.4416 22.3471 22.4404 22.3486 22.4393C23.3599 21.4254 24.1573 20.1533 24.6056 18.7538C24.606 18.7523 24.6064 18.7507 24.6067 18.7492C24.6084 18.7451 24.6099 18.7409 24.6113 18.7367C24.624 18.6902 24.6258 18.6414 24.6165 18.5942C24.6072 18.5469 24.5871 18.5024 24.5578 18.4642C24.5285 18.426 24.4907 18.3951 24.4475 18.3739C24.4042 18.3527 24.3567 18.3417 24.3085 18.3419C24.293 18.3423 24.2776 18.3439 24.2623 18.3466L21.1099 18.3419C21.4407 17.618 21.6251 16.8126 21.6251 15.9659C21.6251 15.0496 21.4087 14.1822 21.0248 13.4136L25.3984 10.8473ZM29.2644 14.2308C28.3097 14.2308 27.5292 15.0112 27.5292 15.9659C27.5292 16.9206 28.3097 17.7016 29.2644 17.7016C30.2191 17.7016 31.0001 16.9206 31.0001 15.9659C31.0001 15.0112 30.2191 14.2308 29.2644 14.2308ZM2.73511 14.2984C1.78043 14.2984 1 15.079 1 16.0337C1 16.9884 1.78043 17.7689 2.73511 17.7689C3.68982 17.7689 4.47034 16.9884 4.47034 16.0337C4.47034 15.079 3.68982 14.2984 2.73511 14.2984ZM29.2644 14.8558C29.8813 14.8558 30.3749 15.3489 30.3749 15.9658C30.3749 16.5827 29.8813 17.0764 29.2644 17.0764C28.6475 17.0764 28.1544 16.5827 28.1544 15.9658C28.1544 15.3489 28.6475 14.8558 29.2644 14.8558ZM2.73511 14.9231C3.35205 14.9231 3.84523 15.4167 3.84523 16.0336C3.84523 16.6506 3.35205 17.1438 2.73511 17.1438C2.11819 17.1438 1.62463 16.6506 1.62463 16.0336C1.62463 15.4167 2.11819 14.9231 2.73511 14.9231ZM13.3421 20.2409C13.2727 20.2419 13.2056 20.266 13.1514 20.3093C13.0973 20.3526 13.059 20.4127 13.0428 20.4802C13.0199 20.5411 13.0167 20.6076 13.0335 20.6705L13.0277 23.8651C11.892 23.4337 10.8535 22.7523 10.01 21.9135C10.007 21.9104 10.0039 21.9073 10.0007 21.9043C9.71877 21.6223 9.34668 21.4817 8.97473 21.4817C8.6028 21.4817 8.23106 21.6224 7.9491 21.9043C7.39047 22.4629 7.38552 23.3744 7.93337 23.9397C7.93842 23.9453 7.94366 23.9508 7.9491 23.956C10.0137 26.0206 12.8831 27.3139 16.0332 27.3139C18.1046 27.3139 20.0494 26.7614 21.7247 25.7955C21.7583 25.776 21.788 25.7505 21.8123 25.7202C21.8566 25.6709 21.8842 25.6088 21.8909 25.5428C21.8976 25.4768 21.8832 25.4105 21.8497 25.3532L18.9735 20.4474C18.945 20.3973 18.9032 20.356 18.8528 20.3282C18.8023 20.3003 18.7451 20.287 18.6875 20.2896C18.6226 20.2926 18.5603 20.3157 18.5092 20.3557C17.7761 20.7643 16.9334 20.9977 16.0333 20.9977C15.154 20.9977 14.3291 20.7753 13.608 20.3841C13.5793 20.3397 13.5398 20.3033 13.4933 20.2783C13.4467 20.2533 13.3949 20.2403 13.3421 20.2409ZM18.5861 21.0219L21.1523 25.3984C19.6294 26.2212 17.8875 26.6885 16.0337 26.6885C13.0552 26.6885 10.3444 25.4664 8.39235 23.515C8.39197 23.5146 8.39159 23.5142 8.39121 23.5139C8.06611 23.1888 8.06611 22.6712 8.39121 22.3461C8.71514 22.0222 9.23034 22.0212 9.55565 22.3426C9.55679 22.3442 9.55795 22.3458 9.55912 22.3473C10.573 23.3586 11.8451 24.1561 13.2446 24.6044C13.2473 24.6048 13.25 24.6052 13.2527 24.6055C13.2546 24.6059 13.2565 24.6063 13.2584 24.6067C13.31 24.6217 13.3645 24.6231 13.4167 24.611C13.469 24.5988 13.5172 24.5733 13.5568 24.5371C13.5964 24.5009 13.6259 24.4551 13.6427 24.4041C13.6594 24.3531 13.6628 24.2987 13.6524 24.2461L13.657 21.1059C14.3809 21.4368 15.1863 21.6212 16.033 21.6212C16.9493 21.6212 17.8167 21.4049 18.5854 21.021L18.5861 21.0219ZM16.0337 27.5292C15.079 27.5292 14.2985 28.3097 14.2985 29.2644C14.2985 30.2191 15.079 31 16.0337 31C16.9884 31 17.7688 30.2191 17.7688 29.2644C17.7688 28.3097 16.9884 27.5292 16.0337 27.5292ZM16.0337 28.1543C16.6507 28.1543 17.1437 28.6475 17.1437 29.2644C17.1437 29.8813 16.6507 30.3749 16.0337 30.3749C15.4168 30.3749 14.9231 29.8813 14.9231 29.2644C14.9231 28.6475 15.4168 28.1543 16.0337 28.1543Z" fill="black" stroke="black" stroke-width="0.5"/>
<path d="M48.56 10.3C48.8533 10.4467 49.02 10.6733 49.06 10.98C49.1133 11.2867 49.04 11.5667 48.84 11.82C48.6933 12.02 48.5 12.1333 48.26 12.16C48.0333 12.1867 47.8067 12.14 47.58 12.02C47.1933 11.82 46.7867 11.66 46.36 11.54C45.9333 11.42 45.48 11.36 45 11.36C44.24 11.36 43.5533 11.4867 42.94 11.74C42.34 11.98 41.82 12.3333 41.38 12.8C40.94 13.2533 40.6 13.7933 40.36 14.42C40.1333 15.0467 40.02 15.74 40.02 16.5C40.02 17.34 40.1467 18.0867 40.4 18.74C40.6533 19.38 41 19.9267 41.44 20.38C41.8933 20.82 42.42 21.1533 43.02 21.38C43.6333 21.5933 44.2933 21.7 45 21.7C45.4533 21.7 45.8933 21.6467 46.32 21.54C46.76 21.4333 47.1733 21.2733 47.56 21.06C47.8 20.94 48.0333 20.9 48.26 20.94C48.5 20.9667 48.6933 21.08 48.84 21.28C49.0667 21.56 49.1467 21.8467 49.08 22.14C49.0267 22.42 48.86 22.6333 48.58 22.78C48.2467 22.9667 47.88 23.1267 47.48 23.26C47.08 23.3933 46.6733 23.5 46.26 23.58C45.8467 23.66 45.4267 23.7 45 23.7C44.04 23.7 43.1333 23.54 42.28 23.22C41.4267 22.9 40.6667 22.4333 40 21.82C39.3333 21.2067 38.8067 20.4533 38.42 19.56C38.0467 18.6667 37.86 17.6467 37.86 16.5C37.86 15.4733 38.0333 14.5267 38.38 13.66C38.74 12.78 39.24 12.0267 39.88 11.4C40.5333 10.76 41.2933 10.2667 42.16 9.92C43.0267 9.56 43.9733 9.38 45 9.38C45.64 9.38 46.26 9.46 46.86 9.62C47.4733 9.78 48.04 10.0067 48.56 10.3ZM53.2748 22.48C53.2748 22.7733 53.1748 23.02 52.9748 23.22C52.7882 23.4067 52.5548 23.5 52.2748 23.5C51.9948 23.5 51.7548 23.4067 51.5548 23.22C51.3682 23.02 51.2748 22.7733 51.2748 22.48V9.72C51.2748 9.42667 51.3748 9.18667 51.5748 9C51.7748 8.8 52.0148 8.7 52.2948 8.7C52.5882 8.7 52.8215 8.8 52.9948 9C53.1815 9.18667 53.2748 9.42667 53.2748 9.72V22.48ZM58.1316 22.48C58.1316 22.7733 58.0382 23.02 57.8516 23.22C57.6649 23.4067 57.4249 23.5 57.1316 23.5C56.8516 23.5 56.6116 23.4067 56.4116 23.22C56.2249 23.02 56.1316 22.7733 56.1316 22.48V13.92C56.1316 13.6267 56.2249 13.3867 56.4116 13.2C56.6116 13 56.8516 12.9 57.1316 12.9C57.4249 12.9 57.6649 13 57.8516 13.2C58.0382 13.3867 58.1316 13.6267 58.1316 13.92V22.48ZM57.1116 11.58C56.7249 11.58 56.4449 11.5133 56.2716 11.38C56.0982 11.2333 56.0116 10.9933 56.0116 10.66V10.34C56.0116 10.0067 56.1049 9.77333 56.2916 9.64C56.4782 9.50667 56.7582 9.44 57.1316 9.44C57.5316 9.44 57.8182 9.51333 57.9916 9.66C58.1649 9.79333 58.2516 10.02 58.2516 10.34V10.66C58.2516 11.0067 58.1582 11.2467 57.9716 11.38C57.7982 11.5133 57.5116 11.58 57.1116 11.58ZM69.4419 12.94C69.7352 12.94 69.9752 13.04 70.1619 13.24C70.3485 13.4267 70.4419 13.6667 70.4419 13.96V26.48C70.4419 26.7733 70.3485 27.0133 70.1619 27.2C69.9752 27.4 69.7352 27.5 69.4419 27.5C69.1619 27.5 68.9219 27.4 68.7219 27.2C68.5352 27.0133 68.4419 26.7733 68.4419 26.48V21.04L68.8619 21.06C68.8619 21.3 68.7619 21.5733 68.5619 21.88C68.3752 22.1733 68.1152 22.46 67.7819 22.74C67.4485 23.02 67.0552 23.2533 66.6019 23.44C66.1485 23.6133 65.6619 23.7 65.1419 23.7C64.2219 23.7 63.3952 23.4667 62.6619 23C61.9285 22.52 61.3485 21.8733 60.9219 21.06C60.4952 20.2333 60.2819 19.2867 60.2819 18.22C60.2819 17.1533 60.4952 16.2133 60.9219 15.4C61.3485 14.5733 61.9219 13.9267 62.6419 13.46C63.3752 12.98 64.1885 12.74 65.0819 12.74C65.6419 12.74 66.1619 12.8333 66.6419 13.02C67.1352 13.2067 67.5619 13.4467 67.9219 13.74C68.2819 14.0333 68.5619 14.3467 68.7619 14.68C68.9619 15 69.0619 15.3067 69.0619 15.6L68.4419 15.66V13.96C68.4419 13.68 68.5352 13.44 68.7219 13.24C68.9219 13.04 69.1619 12.94 69.4419 12.94ZM65.3619 21.86C66.0019 21.86 66.5552 21.7 67.0219 21.38C67.5019 21.06 67.8752 20.6267 68.1419 20.08C68.4085 19.5333 68.5419 18.9133 68.5419 18.22C68.5419 17.5267 68.4085 16.9067 68.1419 16.36C67.8752 15.8133 67.5019 15.38 67.0219 15.06C66.5419 14.74 65.9885 14.58 65.3619 14.58C64.7485 14.58 64.2019 14.74 63.7219 15.06C63.2552 15.38 62.8819 15.8133 62.6019 16.36C62.3352 16.9067 62.2019 17.5267 62.2019 18.22C62.2019 18.9133 62.3352 19.5333 62.6019 20.08C62.8819 20.6267 63.2552 21.06 63.7219 21.38C64.2019 21.7 64.7485 21.86 65.3619 21.86ZM81.0838 12.98C81.3638 12.98 81.5971 13.08 81.7838 13.28C81.9838 13.4667 82.0838 13.7067 82.0838 14V19.26C82.0838 20.6467 81.6971 21.7333 80.9238 22.52C80.1504 23.2933 79.0571 23.68 77.6438 23.68C76.2438 23.68 75.1571 23.2933 74.3838 22.52C73.6238 21.7333 73.2438 20.6467 73.2438 19.26V14C73.2438 13.7067 73.3371 13.4667 73.5238 13.28C73.7104 13.08 73.9504 12.98 74.2438 12.98C74.5238 12.98 74.7571 13.08 74.9438 13.28C75.1438 13.4667 75.2438 13.7067 75.2438 14V19.26C75.2438 20.1267 75.4438 20.7733 75.8438 21.2C76.2571 21.6267 76.8571 21.84 77.6438 21.84C78.4438 21.84 79.0504 21.6267 79.4638 21.2C79.8771 20.7733 80.0838 20.1267 80.0838 19.26V14C80.0838 13.7067 80.1771 13.4667 80.3638 13.28C80.5504 13.08 80.7904 12.98 81.0838 12.98ZM89.7648 23.7C88.6582 23.7 87.6982 23.4733 86.8848 23.02C86.0715 22.5533 85.4382 21.92 84.9848 21.12C84.5448 20.3067 84.3248 19.38 84.3248 18.34C84.3248 17.1667 84.5582 16.1667 85.0248 15.34C85.5048 14.5 86.1248 13.86 86.8848 13.42C87.6448 12.9667 88.4515 12.74 89.3048 12.74C89.9582 12.74 90.5782 12.8733 91.1648 13.14C91.7515 13.3933 92.2715 13.7533 92.7248 14.22C93.1915 14.6733 93.5582 15.2133 93.8248 15.84C94.0915 16.4533 94.2315 17.1267 94.2448 17.86C94.2315 18.1267 94.1248 18.3467 93.9248 18.52C93.7248 18.6933 93.4915 18.78 93.2248 18.78H85.4448L84.9648 17.08H92.4848L92.1048 17.44V16.94C92.0782 16.4733 91.9248 16.0667 91.6448 15.72C91.3648 15.36 91.0182 15.0867 90.6048 14.9C90.1915 14.7 89.7582 14.6 89.3048 14.6C88.9048 14.6 88.5182 14.6667 88.1448 14.8C87.7848 14.92 87.4582 15.12 87.1648 15.4C86.8848 15.68 86.6582 16.0533 86.4848 16.52C86.3248 16.9733 86.2448 17.54 86.2448 18.22C86.2448 18.9533 86.3982 19.5933 86.7048 20.14C87.0115 20.6867 87.4248 21.1133 87.9448 21.42C88.4648 21.7133 89.0382 21.86 89.6648 21.86C90.1582 21.86 90.5648 21.8133 90.8848 21.72C91.2048 21.6133 91.4715 21.4867 91.6848 21.34C91.8982 21.1933 92.0848 21.0533 92.2448 20.92C92.4448 20.8 92.6448 20.74 92.8448 20.74C93.0848 20.74 93.2848 20.8267 93.4448 21C93.6048 21.16 93.6848 21.3533 93.6848 21.58C93.6848 21.8733 93.5382 22.14 93.2448 22.38C92.8848 22.7267 92.3848 23.0333 91.7448 23.3C91.1182 23.5667 90.4582 23.7 89.7648 23.7ZM95.8855 21.86C95.7655 21.6733 95.7121 21.46 95.7255 21.22C95.7388 20.9667 95.8788 20.7533 96.1455 20.58C96.3321 20.46 96.5255 20.4133 96.7255 20.44C96.9388 20.4533 97.1388 20.5533 97.3255 20.74C97.6988 21.1533 98.1121 21.48 98.5655 21.72C99.0321 21.96 99.5921 22.08 100.245 22.08C100.512 22.0667 100.785 22.0267 101.065 21.96C101.345 21.88 101.585 21.7467 101.785 21.56C101.985 21.36 102.085 21.0733 102.085 20.7C102.085 20.3667 101.979 20.1 101.765 19.9C101.552 19.7 101.272 19.54 100.925 19.42C100.579 19.2867 100.205 19.1667 99.8055 19.06C99.3788 18.94 98.9455 18.8067 98.5055 18.66C98.0788 18.5133 97.6921 18.3267 97.3455 18.1C96.9988 17.86 96.7121 17.5533 96.4855 17.18C96.2721 16.8067 96.1655 16.3467 96.1655 15.8C96.1655 15.1733 96.3388 14.6333 96.6855 14.18C97.0455 13.7267 97.5055 13.3733 98.0655 13.12C98.6388 12.8667 99.2588 12.74 99.9255 12.74C100.312 12.74 100.719 12.7933 101.145 12.9C101.572 12.9933 101.985 13.1467 102.385 13.36C102.785 13.5733 103.132 13.8533 103.425 14.2C103.559 14.3733 103.632 14.58 103.645 14.82C103.672 15.06 103.565 15.2733 103.325 15.46C103.165 15.5933 102.972 15.6533 102.745 15.64C102.519 15.6267 102.332 15.5533 102.185 15.42C101.932 15.1 101.605 14.8533 101.205 14.68C100.805 14.4933 100.352 14.4 99.8455 14.4C99.5921 14.4 99.3255 14.44 99.0455 14.52C98.7788 14.5867 98.5521 14.7133 98.3655 14.9C98.1788 15.0867 98.0855 15.36 98.0855 15.72C98.0855 16.0533 98.1921 16.32 98.4055 16.52C98.6321 16.72 98.9255 16.8867 99.2855 17.02C99.6455 17.1533 100.039 17.2733 100.465 17.38C100.879 17.4867 101.285 17.6133 101.685 17.76C102.099 17.9067 102.465 18.1 102.785 18.34C103.119 18.5667 103.385 18.8667 103.585 19.24C103.799 19.6 103.905 20.06 103.905 20.62C103.905 21.2733 103.712 21.8333 103.325 22.3C102.952 22.7533 102.472 23.1 101.885 23.34C101.312 23.58 100.705 23.7 100.065 23.7C99.3055 23.7 98.5455 23.5667 97.7855 23.3C97.0388 23.02 96.4055 22.54 95.8855 21.86Z" fill="black"/>
</svg>
