<svg width="28" height="28" viewBox="0 0 28 28" fill="none" xmlns="http://www.w3.org/2000/svg">
<path fill-rule="evenodd" clip-rule="evenodd" d="M12.1825 9.64253C11.1728 9.64253 10.3544 10.461 10.3544 11.4707V15.9707C10.3544 16.9803 11.1728 17.7988 12.1825 17.7988H16.6825C17.6921 17.7988 18.5106 16.9803 18.5106 15.9707V11.4707C18.5106 10.461 17.6921 9.64253 16.6825 9.64253H12.1825ZM9.5106 11.4707C9.5106 9.99502 10.7068 8.79878 12.1825 8.79878H16.6825C18.1581 8.79878 19.3544 9.99502 19.3544 11.4707V15.9707C19.3544 17.4463 18.1581 18.6425 16.6825 18.6425H12.1825C10.7068 18.6425 9.5106 17.4463 9.5106 15.9707V11.4707ZM14.4325 12.455C13.7335 12.455 13.1668 13.0217 13.1668 13.7207C13.1668 14.4196 13.7335 14.9863 14.4325 14.9863C15.1315 14.9863 15.6981 14.4196 15.6981 13.7207C15.6981 13.0217 15.1315 12.455 14.4325 12.455ZM12.3231 13.7207C12.3231 12.5557 13.2675 11.6113 14.4325 11.6113C15.5974 11.6113 16.5418 12.5557 16.5418 13.7207C16.5418 14.8856 15.5974 15.83 14.4325 15.83C13.2675 15.83 12.3231 14.8856 12.3231 13.7207ZM17.3856 11.1894C17.3856 10.9564 17.1967 10.7675 16.9637 10.7675C16.7307 10.7675 16.5418 10.9564 16.5418 11.1894V11.1904C16.5418 11.4234 16.7307 11.6123 16.9637 11.6123C17.1967 11.6123 17.3856 11.4234 17.3856 11.1904V11.1894Z" fill="#60B2FF"/>
<rect x="1.24994" y="0.75" width="26" height="26" rx="13" stroke="#60B2FF"/>
</svg>
