<svg width="28" height="28" viewBox="0 0 28 28" fill="none" xmlns="http://www.w3.org/2000/svg">
<path d="M19.6704 9.19698C19.1079 9.4726 18.5566 9.58454 17.9829 9.75385C17.3523 9.04229 16.4174 9.00292 15.5191 9.33929C14.6208 9.67567 14.0324 10.498 14.0453 11.4414V12.0039C12.22 12.0505 10.5944 11.2192 9.54535 9.75385C9.54535 9.75385 7.19297 13.9349 11.7953 15.9414C10.7423 16.6428 9.69216 17.1159 8.42035 17.0664C10.2811 18.0805 12.3089 18.4293 14.0645 17.9197C16.0782 17.3347 17.7331 15.8255 18.3682 13.5648C18.5576 12.8772 18.6517 12.1669 18.6477 11.4537C18.6466 11.3137 19.4971 9.89448 19.6704 9.19642V9.19698Z" stroke="#60B2FF" stroke-width="0.84375" stroke-linecap="round" stroke-linejoin="round"/>
<rect x="1.24994" y="0.75" width="26" height="26" rx="13" stroke="#60B2FF"/>
</svg>
